<?xml version="1.0" encoding="UTF-8"?>
<svg width="24px" height="24px" viewBox="0 0 24 24" version="1.1" xmlns="http://www.w3.org/2000/svg" xmlns:xlink="http://www.w3.org/1999/xlink">
    <title>24_explore_black</title>
    <g id="Page-1" stroke="none" stroke-width="1" fill="none" fill-rule="evenodd">
        <g id="Desktop-HD" transform="translate(-1145.000000, -475.000000)">
            <g id="24_explore_black" transform="translate(1145.000000, 475.000000)">
                <rect id="Rectangle" x="0" y="0" width="24" height="24"></rect>
                <path d="M15.0273527,24 C15.2461739,24 15.4298274,23.9257571 15.5783133,23.7772712 C15.7267991,23.6287854 15.801042,23.4529469 15.801042,23.2497558 C15.801042,23.0309345 15.7267991,22.8511885 15.5783133,22.7105177 C15.4298274,22.569847 15.2461739,22.4995116 15.0273527,22.4995116 L12.7531749,22.4995116 L12.7531749,20.9286877 C14.191143,20.7567568 15.5118854,20.3581895 16.7154021,19.732986 C17.9189189,19.1077825 18.9544122,18.3067405 19.8218821,17.32986 C20.689352,16.3529795 21.3653533,15.2158906 21.849886,13.9185933 C22.3344188,12.621296 22.5766851,11.2145881 22.5766851,9.69846955 C22.5766851,8.71377401 22.4477369,7.75643113 22.1898404,6.8264409 C21.931944,5.89645067 21.5646369,5.01725822 21.0879192,4.18886356 C20.6112016,3.3604689 20.0250733,2.60240964 19.3295344,1.91468577 C18.6339954,1.2269619 17.8563986,0.625203517 16.9967437,0.109410615 C16.8091827,1.4033219e-13 16.6138066,-0.0273526539 16.4106154,0.0273526539 C16.2074243,0.0820579616 16.0589385,0.195376099 15.9651579,0.367307066 C15.8557473,0.554868121 15.8283947,0.746336698 15.8831,0.941712797 C15.9378053,1.1370889 16.0511234,1.28948225 16.2230544,1.39889287 C16.9889287,1.85216542 17.6688375,2.37577336 18.2627809,2.9697167 C18.8567242,3.56366005 19.3607945,4.22012374 19.7749919,4.93910778 C20.1891892,5.65809183 20.509606,6.42005861 20.7362423,7.22500814 C20.9628785,8.02995767 21.0761967,8.85444481 21.0761967,9.69846955 C21.0761967,11.1208076 20.8300228,12.4337349 20.337675,13.6372517 C19.8453273,14.8407685 19.1654184,15.8762618 18.2979486,16.7437317 C17.4304787,17.6112016 16.3949853,18.2911104 15.1914686,18.7834582 C13.9879518,19.2758059 12.6750244,19.5219798 11.2526864,19.5219798 C10.6274829,19.5219798 10.0061869,19.463367 9.38879844,19.3461413 C8.77140996,19.2289157 8.1735591,19.0530772 7.59524585,18.8186259 C7.40768479,18.7404754 7.21621622,18.7404754 7.02084012,18.8186259 C6.82546402,18.8967763 6.68870075,19.029632 6.61055031,19.2171931 C6.53239987,19.4047542 6.53630739,19.5962227 6.62227288,19.7915988 C6.70823836,19.9869749 6.84500163,20.1237382 7.03256268,20.2018886 C7.70465646,20.4676001 8.39238033,20.6707913 9.09573429,20.8114621 C9.79908824,20.9521329 10.5180723,21.0224683 11.2526864,21.0224683 L11.2761316,21.0224683 L11.2761316,21.0224683 L11.2761316,22.4995116 L9.09573429,22.4995116 C8.87691306,22.4995116 8.689352,22.569847 8.53305112,22.7105177 C8.37675024,22.8511885 8.2985998,23.0309345 8.2985998,23.2497558 C8.2985998,23.4529469 8.37675024,23.6287854 8.53305112,23.7772712 C8.689352,23.9257571 8.87691306,24 9.09573429,24 L15.0273527,24 Z" id="Path" fill="#152729" fill-rule="nonzero"></path>
                <path d="M11.2526864,2.2926734 C10.2258162,2.2926734 9.26182067,2.48811072 8.36135842,2.88206296 C7.4545978,3.27877073 6.66067608,3.81651047 5.98053401,4.49665254 C5.30176347,5.17542308 4.76859972,5.96771369 4.37975981,6.87265022 C3.99219652,7.77461568 3.8,8.74022333 3.8,9.76880495 C3.8,10.7973866 3.99219652,11.7629942 4.37975981,12.6649597 C4.76859972,13.5698962 5.30176347,14.3621868 5.98053401,15.0409574 C6.65930455,15.7197279 7.45159516,16.2528916 8.35653169,16.6417316 C9.25849716,17.0292948 10.2241048,17.2214914 11.2526864,17.2214914 C12.281268,17.2214914 13.2468757,17.0292948 14.1488411,16.6417316 C15.0537777,16.2528916 15.8460683,15.7197279 16.5248388,15.0409574 C17.2036094,14.3621868 17.7367731,13.5698962 18.125613,12.6649597 C18.5131763,11.7629942 18.7053728,10.7973866 18.7053728,9.76880495 C18.7053728,8.74022333 18.5131763,7.77461568 18.125613,6.87265022 C17.7367731,5.96771369 17.2036094,5.17542308 16.5248388,4.49665254 C15.8446968,3.81651047 15.050775,3.27877073 14.1440144,2.88206296 C13.2435522,2.48811072 12.2795567,2.2926734 11.2526864,2.2926734 Z" id="Path" stroke="#102829" stroke-width="1.6" fill-rule="nonzero"></path>
            </g>
        </g>
    </g>
</svg>