<?xml version="1.0" encoding="UTF-8"?>
<svg width="24px" height="24px" viewBox="0 0 24 24" version="1.1" xmlns="http://www.w3.org/2000/svg" xmlns:xlink="http://www.w3.org/1999/xlink">
    <title>24_favourites_white</title>
    <g id="Page-1" stroke="none" stroke-width="1" fill="none" fill-rule="evenodd">
        <g id="Desktop-HD" transform="translate(-1116.000000, -572.000000)">
            <g id="24_favourites_white" transform="translate(1116.000000, 572.000000)">
                <rect id="Rectangle-Copy" x="0" y="0" width="24" height="24"></rect>
                <path d="M16.7482817,3.8 C15.9546485,3.8 15.201308,3.9735784 14.4882741,4.32079493 C13.7673503,4.67185346 13.1444296,5.16801987 12.6179573,5.80730759 C12.3794317,6.09694582 12.1735353,6.40038104 12.0004771,6.71771971 C11.8273465,6.40046279 11.6214267,6.09698483 11.382869,5.80730759 C10.8563967,5.16801987 10.233476,4.67185346 9.5125522,4.32079493 C8.79951825,3.9735784 8.04617779,3.8 7.2525446,3.8 C5.79784771,3.8 4.55028114,4.33809729 3.50664836,5.40657847 C2.95994773,5.95335739 2.54533781,6.57501075 2.25644778,7.27839518 C1.93934892,8.02687447 1.78817682,8.7921898 1.80072553,9.58275859 C1.81342891,10.459239 1.9966727,11.2872533 2.35194009,12.0675728 C2.70776142,12.8491089 3.21464934,13.5089985 4.03348069,14.2072268 C4.23698166,14.3816527 5.05214364,15.1171147 6.48018518,16.4153343 C9.42883479,19.1229751 11.2599485,20.7974949 12.0228465,21.4425411 C12.5138563,20.9961469 13.8018727,19.8219686 15.8868968,17.9200884 C18.1484139,15.8589588 19.5509775,14.5780553 20.126996,14.0490612 C20.7800374,13.5090463 21.2881697,12.8494019 21.6523289,12.0708547 C22.018034,11.2890025 22.2,10.4565753 22.2,9.57397183 C22.2,8.76439657 22.0488024,7.9926099 21.7451809,7.25885796 C21.4554885,6.55352718 21.0408786,5.93187382 20.5007934,5.39178871 C19.45291,4.33145042 18.2039992,3.8 16.7482817,3.8 Z" id="Path" stroke="#FAFFFE" stroke-width="1.6" fill-rule="nonzero"></path>
            </g>
        </g>
    </g>
</svg>