<?xml version="1.0" encoding="UTF-8"?>
<svg width="24px" height="24px" viewBox="0 0 24 24" version="1.1" xmlns="http://www.w3.org/2000/svg" xmlns:xlink="http://www.w3.org/1999/xlink">
    <title>24_logout_black</title>
    <g id="Page-1" stroke="none" stroke-width="1" fill="none" fill-rule="evenodd">
        <g id="Desktop-HD" transform="translate(-1145.000000, -559.000000)">
            <g id="24_logout_black" transform="translate(1145.000000, 559.000000)">
                <rect id="Rectangle-Copy-3" x="0" y="0" width="24" height="24"></rect>
                <path d="M16.7292301,23.7292301 C19.2949991,23.7292301 21.608773,22.9732445 23.6705518,21.4612735 C23.853821,21.3238216 23.960728,21.1443704 23.9912729,20.9229201 C24.0218178,20.7014698 23.9721824,20.4991101 23.8423667,20.3158408 C23.712551,20.1325716 23.5330998,20.0218465 23.3040133,19.9836654 C23.0749268,19.9454843 22.8687489,19.9951197 22.6854797,20.1325716 C20.9138772,21.4307286 18.9284607,22.0798071 16.7292301,22.0798071 C15.3547109,22.0798071 14.0489177,21.8201757 12.8118505,21.3009129 C11.6053281,20.7816501 10.5362577,20.0562095 9.60463915,19.1245909 C8.67302061,18.1929724 7.95521617,17.1239019 7.45122581,15.9173796 C6.91669059,14.6803123 6.64942298,13.3745191 6.64942298,12 C6.64942298,10.6254809 6.90905437,9.31968766 7.42831716,8.08262043 C7.94757995,6.87609807 8.67302061,5.80702762 9.60463915,4.87540908 C10.5362577,3.94379055 11.6053281,3.22598611 12.8118505,2.72199575 C14.0489177,2.18746053 15.3547109,1.92019291 16.7292301,1.92019291 C18.9284607,1.92019291 20.9138772,2.5692714 22.6854797,3.86742837 C22.8687489,4.00488029 23.0711087,4.0545157 23.292559,4.01633462 C23.5140093,3.97815353 23.6934604,3.86742837 23.8309123,3.68415915 C23.9683642,3.50088994 24.0218178,3.29853017 23.9912729,3.07707986 C23.960728,2.85562956 23.853821,2.67617845 23.6705518,2.53872653 C21.608773,1.02675547 19.2949991,0.270769937 16.7292301,0.270769937 C15.1408968,0.270769937 13.6212895,0.576218637 12.1704082,1.18711604 C10.7653442,1.782741 9.52064075,2.62272492 8.43629787,3.70706781 C7.35195499,4.79141069 6.51197106,6.03611414 5.9163461,7.44117816 C5.3054487,8.89205948 5,10.4116668 5,12 C5,13.5883332 5.3054487,15.1079405 5.9163461,16.5588218 C6.51197106,17.9638859 7.35195499,19.2085893 8.43629787,20.2929322 C9.52064075,21.3772751 10.7653442,22.217259 12.1704082,22.812884 C13.6212895,23.4237814 15.1408968,23.7292301 16.7292301,23.7292301 Z" id="Path" fill="#152729" fill-rule="nonzero" transform="translate(14.500000, 12.000000) scale(-1, 1) translate(-14.500000, -12.000000) "></path>
                <path d="M12.43125,16.56875 C12.696875,16.56875 12.9270833,16.4713542 13.121875,16.2765625 L16.734375,12.690625 C16.9114583,12.4958333 17,12.265625 17,12 C17,11.734375 16.9114583,11.5041667 16.734375,11.309375 L13.121875,7.7234375 C12.9270833,7.52864583 12.696875,7.43125 12.43125,7.43125 C12.165625,7.43125 11.9398438,7.52421875 11.7539062,7.71015625 C11.5679687,7.89609375 11.475,8.121875 11.475,8.3875 C11.475,8.653125 11.5723958,8.88333333 11.7671875,9.078125 L13.7328125,11.04375 L0.95625,11.04375 C0.690625,11.04375 0.46484375,11.1367188 0.27890625,11.3226562 C0.09296875,11.5085937 0,11.734375 0,12 C0,12.265625 0.09296875,12.4914063 0.27890625,12.6773438 C0.46484375,12.8632812 0.690625,12.95625 0.95625,12.95625 L13.7328125,12.95625 L11.7671875,14.921875 C11.5723958,15.1166667 11.475,15.346875 11.475,15.6125 C11.475,15.878125 11.5679687,16.1039063 11.7539062,16.2898437 C11.9398438,16.4757812 12.165625,16.56875 12.43125,16.56875 Z" id="Path" fill="#152729" fill-rule="nonzero" transform="translate(8.500000, 12.000000) scale(-1, 1) translate(-8.500000, -12.000000) "></path>
            </g>
        </g>
    </g>
</svg>