<?xml version="1.0" encoding="UTF-8"?>
<svg width="24px" height="24px" viewBox="0 0 24 24" version="1.1" xmlns="http://www.w3.org/2000/svg" xmlns:xlink="http://www.w3.org/1999/xlink">
    <title>24_profile_colour</title>
    <g id="Page-1" stroke="none" stroke-width="1" fill="none" fill-rule="evenodd">
        <g id="Desktop-HD" transform="translate(-1173.000000, -531.000000)">
            <g id="24_profile_colour" transform="translate(1173.000000, 531.000000)">
                <rect id="Rectangle-Copy-2" x="0" y="0" width="24" height="24"></rect>
                <path d="M12,1.8 C10.5934237,1.8 9.26940554,2.06403755 8.02852786,2.59489432 C6.78560496,3.12662604 5.70157409,3.85362488 4.77759949,4.77759949 C3.85362488,5.70157409 3.12662604,6.78560496 2.59489432,8.02852786 C2.06403755,9.26940554 1.8,10.5934237 1.8,12 C1.8,13.4065763 2.06403755,14.7305945 2.59489432,15.9714721 C3.12662604,17.214395 3.85362488,18.2984259 4.77759949,19.2224005 C5.70157409,20.1463751 6.78560496,20.873374 8.02852786,21.4051057 C9.26940554,21.9359624 10.5934237,22.2 12,22.2 C13.4065763,22.2 14.7305945,21.9359624 15.9714721,21.4051057 C17.214395,20.873374 18.2984259,20.1463751 19.2224005,19.2224005 C20.1463751,18.2984259 20.873374,17.214395 21.4051057,15.9714721 C21.9359624,14.7305945 22.2,13.4065763 22.2,12 C22.2,10.5934237 21.9359624,9.26940554 21.4051057,8.02852786 C20.873374,6.78560496 20.1463751,5.70157409 19.2224005,4.77759949 C18.2984259,3.85362488 17.214395,3.12662604 15.9714721,2.59489432 C14.7305945,2.06403755 13.4065763,1.8 12,1.8 Z" id="Path" stroke="#65C0C7" stroke-width="1.6" fill-rule="nonzero"></path>
                <path d="M8.25,11.25 C8.65625,11.25 9.00390625,11.1015625 9.29296875,10.8046875 C9.58203125,10.5078125 9.7265625,10.15625 9.7265625,9.75 C9.7265625,9.34375 9.58203125,8.9921875 9.29296875,8.6953125 C9.00390625,8.3984375 8.65625,8.25 8.25,8.25 C7.828125,8.25 7.47265625,8.3984375 7.18359375,8.6953125 C6.89453125,8.9921875 6.75,9.34375 6.75,9.75 C6.75,10.15625 6.89453125,10.5078125 7.18359375,10.8046875 C7.47265625,11.1015625 7.828125,11.25 8.25,11.25 Z" id="Path" fill="#65C0C7" fill-rule="nonzero"></path>
                <path d="M15.75,11.25 C16.15625,11.25 16.5039062,11.1015625 16.7929688,10.8046875 C17.0820312,10.5078125 17.2265625,10.15625 17.2265625,9.75 C17.2265625,9.34375 17.0820312,8.9921875 16.7929688,8.6953125 C16.5039062,8.3984375 16.15625,8.25 15.75,8.25 C15.328125,8.25 14.9726562,8.3984375 14.6835938,8.6953125 C14.3945312,8.9921875 14.25,9.34375 14.25,9.75 C14.25,10.15625 14.3945312,10.5078125 14.6835938,10.8046875 C14.9726562,11.1015625 15.328125,11.25 15.75,11.25 Z" id="Path" fill="#65C0C7" fill-rule="nonzero"></path>
                <path d="M11.859375,19.546875 L11.8828125,19.5439453 L11.8828125,19.5439453 L11.90625,19.5351562 C11.921875,19.5273437 11.9375,19.5234375 11.953125,19.5234375 C13.15625,19.5234375 14.1796875,19.3046875 15.0234375,18.8671875 C15.8671875,18.4296875 16.5585938,17.9492187 17.0976563,17.4257812 C17.6367188,16.9023437 18.03125,16.4140625 18.28125,15.9609375 C18.53125,15.5078125 18.6640625,15.2578125 18.6796875,15.2109375 C18.7734375,15.0234375 18.78125,14.8359375 18.703125,14.6484375 C18.625,14.4609375 18.4921875,14.3203125 18.3046875,14.2265625 C18.1171875,14.1484375 17.9257813,14.1445312 17.7304688,14.2148437 C17.5351563,14.2851562 17.3984375,14.4140625 17.3203125,14.6015625 C17.3203125,14.6171875 17.21875,14.8007812 17.015625,15.1523437 C16.8125,15.5039062 16.4960938,15.890625 16.0664063,16.3125 C15.6367188,16.734375 15.0820313,17.125 14.4023438,17.484375 C13.7226563,17.84375 12.90625,18.0234375 11.953125,18.0234375 C11.9375,18.0234375 11.921875,18.0273437 11.90625,18.0351562 L11.8828125,18.046875 L11.8828125,18.046875 C10.9765625,18.046875 10.1992188,17.8710937 9.55078125,17.5195312 C8.90234375,17.1679687 8.3671875,16.7851562 7.9453125,16.3710937 C7.5234375,15.9570312 7.20703125,15.5664062 6.99609375,15.1992187 C6.78515625,14.8320312 6.671875,14.6328125 6.65625,14.6015625 C6.5625,14.4140625 6.421875,14.2851562 6.234375,14.2148437 C6.046875,14.1445312 5.859375,14.1484375 5.671875,14.2265625 C5.46875,14.3203125 5.33203125,14.4609375 5.26171875,14.6484375 C5.19140625,14.8359375 5.203125,15.03125 5.296875,15.234375 C5.3125,15.265625 5.44921875,15.5117187 5.70703125,15.9726562 C5.96484375,16.4335937 6.359375,16.9257812 6.890625,17.4492187 C7.421875,17.9726562 8.09765625,18.453125 8.91796875,18.890625 C9.73828125,19.328125 10.71875,19.546875 11.859375,19.546875 Z" id="Path" fill="#65C0C7" fill-rule="nonzero"></path>
            </g>
        </g>
    </g>
</svg>