<?xml version="1.0" encoding="UTF-8"?>
<svg width="32px" height="32px" viewBox="0 0 32 32" version="1.1" xmlns="http://www.w3.org/2000/svg" xmlns:xlink="http://www.w3.org/1999/xlink">
    <title>32_explore_colour</title>
    <g id="Page-1" stroke="none" stroke-width="1" fill="none" fill-rule="evenodd">
        <g id="Desktop-HD" transform="translate(-1097.000000, -377.000000)">
            <g id="32_explore_colour" transform="translate(1097.000000, 377.000000)">
                <rect id="Rectangle" x="0" y="0" width="32" height="32"></rect>
                <path d="M20.0364702,32 C20.3282318,32 20.5731032,31.9010094 20.7710843,31.7030283 C20.9690655,31.5050472 21.068056,31.2705959 21.068056,30.9996744 C21.068056,30.7079127 20.9690655,30.4682514 20.7710843,30.2806903 C20.5731032,30.0931293 20.3282318,29.9993487 20.0364702,29.9993487 L17.0042331,29.9993487 L17.0042331,27.904917 C18.9215239,27.6756757 20.6825138,27.1442527 22.2872029,26.310648 C23.8918919,25.4770433 25.2725497,24.4089873 26.4291762,23.10648 C27.5858027,21.8039726 28.4871377,20.2878541 29.1331814,18.5581244 C29.779225,16.8283947 30.1022468,14.9527841 30.1022468,12.9312927 C30.1022468,11.6183654 29.9303159,10.3419082 29.5864539,9.1019212 C29.242592,7.86193422 28.7528492,6.68967763 28.1172257,5.58515142 C27.4816021,4.4806252 26.7000977,3.46987952 25.7727125,2.55291436 C24.8453273,1.6359492 23.8085314,0.833604689 22.662325,0.145880821 C22.4122436,1.87109587e-13 22.1517421,-0.0364702051 21.8808206,0.0364702051 C21.6098991,0.109410615 21.4119179,0.260501465 21.2868772,0.489742755 C21.1409964,0.739824162 21.1045262,0.995115598 21.1774666,1.25561706 C21.250407,1.51611853 21.4014979,1.71930967 21.6307392,1.86519049 C22.6519049,2.46955389 23.55845,3.16769782 24.3503745,3.95962227 C25.1422989,4.75154673 25.8143927,5.62683165 26.3666558,6.58547704 C26.9189189,7.54412244 27.3461413,8.56007815 27.648323,9.63334419 C27.9505047,10.7066102 28.1015956,11.8059264 28.1015956,12.9312927 C28.1015956,14.8277434 27.7733637,16.5783133 27.1169,18.1830023 C26.4604363,19.7876913 25.5538912,21.1683491 24.3972647,22.3249756 C23.2406382,23.4816021 21.8599805,24.3881472 20.2552914,25.0446109 C18.6506024,25.7010746 16.9000326,26.0293064 15.0035819,26.0293064 C14.1699772,26.0293064 13.3415825,25.951156 12.5183979,25.7948551 C11.6952133,25.6385542 10.8980788,25.4041029 10.1269945,25.0915011 C9.87691306,24.9873006 9.62162162,24.9873006 9.36112016,25.0915011 C9.10061869,25.1957017 8.91826767,25.3728427 8.81406708,25.6229241 C8.70986649,25.8730055 8.71507652,26.128297 8.82969717,26.3887984 C8.94431781,26.6492999 9.12666884,26.8316509 9.37675024,26.9358515 C10.2728753,27.2901335 11.1898404,27.561055 12.1276457,27.7486161 C13.065451,27.9361771 14.0240964,28.0299577 15.0035819,28.0299577 L15.0348421,28.0299577 L15.0348421,28.0299577 L15.0348421,29.9993487 L12.1276457,29.9993487 C11.8358841,29.9993487 11.5858027,30.0931293 11.3774015,30.2806903 C11.1690003,30.4682514 11.0647997,30.7079127 11.0647997,30.9996744 C11.0647997,31.2705959 11.1690003,31.5050472 11.3774015,31.7030283 C11.5858027,31.9010094 11.8358841,32 12.1276457,32 L20.0364702,32 Z" id="Path" fill="#65C0C7" fill-rule="nonzero"></path>
                <path d="M15.0035819,2.8652312 C13.6070789,2.8652312 12.2961962,3.13141669 11.0716543,3.66715379 C9.84022351,4.20590475 8.76216794,4.93635652 7.83851654,5.86000792 C6.91636526,6.7821592 6.19185466,7.85843074 5.66358152,9.08786642 C5.13670469,10.3140525 4.875,11.6266984 4.875,13.0250733 C4.875,14.4234481 5.13670469,15.736094 5.66358152,16.9622801 C6.19185466,18.1917158 6.91636526,19.2679873 7.83851654,20.1901386 C8.76066783,21.1122899 9.83693937,21.8368005 11.0663751,22.3650736 C12.2925611,22.8919505 13.605207,23.1536552 15.0035819,23.1536552 C16.4019568,23.1536552 17.7146027,22.8919505 18.9407887,22.3650736 C20.1702244,21.8368005 21.246496,21.1122899 22.1686472,20.1901386 C23.0907985,19.2679873 23.8153091,18.1917158 24.3435823,16.9622801 C24.8704591,15.736094 25.1321638,14.4234481 25.1321638,13.0250733 C25.1321638,11.6266984 24.8704591,10.3140525 24.3435823,9.08786642 C23.8153091,7.85843074 23.0907985,6.7821592 22.1686472,5.86000792 C21.2449958,4.93635652 20.1669403,4.20590475 18.9355095,3.66715379 C17.7109676,3.13141669 16.4000849,2.8652312 15.0035819,2.8652312 Z" id="Path" stroke="#65C0C7" stroke-width="1.75" fill-rule="nonzero"></path>
            </g>
        </g>
    </g>
</svg>