<?xml version="1.0" encoding="UTF-8"?>
<svg width="32px" height="32px" viewBox="0 0 32 32" version="1.1" xmlns="http://www.w3.org/2000/svg" xmlns:xlink="http://www.w3.org/1999/xlink">
    <title>32_favourites_white</title>
    <g id="Page-1" stroke="none" stroke-width="1" fill="none" fill-rule="evenodd">
        <g id="Desktop-HD" transform="translate(-1134.000000, -414.000000)">
            <g id="32_favourites_white" transform="translate(1134.000000, 414.000000)">
                <rect id="Rectangle-Copy" x="0" y="0" width="32" height="32"></rect>
                <path d="M22.3310423,4.875 C21.2433961,4.875 20.2109723,5.11289102 19.2337857,5.58873839 C18.2479697,6.06878795 17.3959378,6.74701038 16.6759898,7.62123289 C16.4242014,7.92697599 16.1990391,8.24397785 16.0006082,8.57229201 C15.8021412,8.24408849 15.5769443,7.92702935 15.3251119,7.62123289 C14.605164,6.74701038 13.7531321,6.06878795 12.767316,5.58873839 C11.7901295,5.11289102 10.7577056,4.875 9.67005947,4.875 C7.67751056,4.875 5.96812861,5.61109425 4.53841738,7.07484622 C3.79291323,7.820436 3.22619732,8.67022382 2.83130157,9.63170912 C2.39868961,10.6528111 2.19216829,11.6991904 2.20932485,12.7800534 C2.22665057,13.9754707 2.47682882,15.1050104 2.96148181,16.1695161 C3.44674068,17.2353525 4.13668977,18.1363976 5.25361208,19.0888119 C5.5242309,19.3207672 6.6096886,20.3001803 8.51131796,22.0289343 C12.4536565,25.6490477 14.8982346,27.884519 16.1497166,28.740671 C16.7970819,28.1521717 18.5177389,26.5835984 21.311696,24.0350564 C24.327392,21.2865739 26.1977234,19.5784751 26.958137,18.8797887 C27.850834,18.141597 28.5455756,17.2399623 29.0433854,16.1756793 C29.542886,15.1077814 29.7916667,13.9708415 29.7916667,12.7652958 C29.7916667,11.660213 29.5851174,10.6067558 29.1706778,9.60519319 C28.7749044,8.64157907 28.2081885,7.79179124 27.4699201,7.05352282 C26.0355597,5.60210854 24.3247074,4.875 22.3310423,4.875 Z" id="Path" stroke="#FAFFFE" stroke-width="1.75" fill-rule="nonzero"></path>
            </g>
        </g>
    </g>
</svg>