<?xml version="1.0" encoding="UTF-8"?>
<svg width="32px" height="32px" viewBox="0 0 32 32" version="1.1" xmlns="http://www.w3.org/2000/svg" xmlns:xlink="http://www.w3.org/1999/xlink">
    <title>32_logout_black</title>
    <g id="Page-1" stroke="none" stroke-width="1" fill="none" fill-rule="evenodd">
        <g id="Desktop-HD" transform="translate(-1060.000000, -488.000000)">
            <g id="32_logout_black" transform="translate(1060.000000, 488.000000)">
                <rect id="Rectangle-Copy-3" x="0" y="0" width="32" height="32"></rect>
                <path d="M21.8158696,31 C25.056841,31 27.9795028,30.0332031 30.5838549,28.0996094 C30.8153528,27.9238281 30.9503933,27.6943359 30.9889763,27.4111328 C31.0275593,27.1279297 30.9648619,26.8691406 30.8008842,26.6347656 C30.6369065,26.4003906 30.4102314,26.2587891 30.1208589,26.2099609 C29.8314865,26.1611328 29.5710513,26.2246094 29.3395533,26.4003906 C27.1017397,28.0605469 24.5938451,28.890625 21.8158696,28.890625 C20.0796348,28.890625 18.4302119,28.5585938 16.8676006,27.8945312 C15.3435724,27.2304688 13.9931676,26.3027344 12.8163863,25.1113281 C11.639605,23.9199219 10.7329046,22.5527344 10.0962852,21.0097656 C9.42108285,19.4277344 9.08348166,17.7578125 9.08348166,16 C9.08348166,14.2421875 9.4114371,12.5722656 10.067348,10.9902344 C10.7232589,9.44726562 11.639605,8.08007812 12.8163863,6.88867188 C13.9931676,5.69726562 15.3435724,4.77929688 16.8676006,4.13476562 C18.4302119,3.45117188 20.0796348,3.109375 21.8158696,3.109375 C24.5938451,3.109375 27.1017397,3.93945313 29.3395533,5.59960938 C29.5710513,5.77539062 29.8266636,5.83886719 30.1063903,5.79003906 C30.386117,5.74121094 30.6127921,5.59960938 30.7864156,5.36523438 C30.960039,5.13085938 31.0275593,4.87207031 30.9889763,4.58886719 C30.9503933,4.30566406 30.8153528,4.07617188 30.5838549,3.90039062 C27.9795028,1.96679688 25.056841,1 21.8158696,1 C19.8095539,1 17.89005,1.390625 16.0573578,2.171875 C14.28254,2.93359375 12.7102831,4.0078125 11.3405868,5.39453125 C9.97089051,6.78125 8.90985818,8.37304688 8.15748981,10.1699219 C7.38582994,12.0253906 7,13.96875 7,16 C7,18.03125 7.38582994,19.9746094 8.15748981,21.8300781 C8.90985818,23.6269531 9.97089051,25.21875 11.3405868,26.6054688 C12.7102831,27.9921875 14.28254,29.0664062 16.0573578,29.828125 C17.89005,30.609375 19.8095539,31 21.8158696,31 Z" id="Path" fill="#152729" fill-rule="nonzero" transform="translate(19.000000, 16.000000) scale(-1, 1) translate(-19.000000, -16.000000) "></path>
                <path d="M13.1625,21.8375 C13.44375,21.8375 13.6875,21.734375 13.89375,21.528125 L18.71875,16.73125 C18.90625,16.525 19,16.28125 19,16 C19,15.71875 18.90625,15.475 18.71875,15.26875 L13.89375,10.471875 C13.6875,10.265625 13.44375,10.1625 13.1625,10.1625 C12.88125,10.1625 12.6421875,10.2609375 12.4453125,10.4578125 C12.2484375,10.6546875 12.15,10.89375 12.15,11.175 C12.15,11.45625 12.253125,11.7 12.459375,11.90625 L15.540625,14.9875 L1.0125,14.9875 C0.73125,14.9875 0.4921875,15.0859375 0.2953125,15.2828125 C0.0984375,15.4796875 0,15.71875 0,16 C0,16.28125 0.0984375,16.5203125 0.2953125,16.7171875 C0.4921875,16.9140625 0.73125,17.0125 1.0125,17.0125 L15.540625,17.0125 L12.459375,20.09375 C12.253125,20.3 12.15,20.54375 12.15,20.825 C12.15,21.10625 12.2484375,21.3453125 12.4453125,21.5421875 C12.6421875,21.7390625 12.88125,21.8375 13.1625,21.8375 Z" id="Path" fill="#152729" fill-rule="nonzero" transform="translate(9.500000, 16.000000) scale(-1, 1) translate(-9.500000, -16.000000) "></path>
            </g>
        </g>
    </g>
</svg>