<?xml version="1.0" encoding="UTF-8"?>
<svg width="32px" height="32px" viewBox="0 0 32 32" version="1.1" xmlns="http://www.w3.org/2000/svg" xmlns:xlink="http://www.w3.org/1999/xlink">
    <title>32_profile_colour</title>
    <g id="Page-1" stroke="none" stroke-width="1" fill="none" fill-rule="evenodd">
        <g id="Desktop-HD" transform="translate(-1097.000000, -451.000000)">
            <g id="32_profile_colour" transform="translate(1097.000000, 451.000000)">
                <rect id="Rectangle-Copy-2" x="0" y="0" width="32" height="32"></rect>
                <path d="M16,2.13333333 C14.0873473,2.13333333 12.2870922,2.492857 10.5998169,3.21468598 C8.91049645,3.93738993 7.43735968,4.925782 6.18157084,6.18157084 C4.925782,7.43735968 3.93738993,8.91049645 3.21468598,10.5998169 C2.492857,12.2870922 2.13333333,14.0873473 2.13333333,16 C2.13333333,17.9126527 2.492857,19.7129078 3.21468598,21.4001831 C3.93738993,23.0895036 4.925782,24.5626403 6.18157084,25.8184292 C7.43735968,27.074218 8.91049645,28.0626101 10.5998169,28.785314 C12.2870922,29.507143 14.0873473,29.8666667 16,29.8666667 C17.9126527,29.8666667 19.7129078,29.507143 21.4001831,28.785314 C23.0895036,28.0626101 24.5626403,27.074218 25.8184292,25.8184292 C27.074218,24.5626403 28.0626101,23.0895036 28.785314,21.4001831 C29.507143,19.7129078 29.8666667,17.9126527 29.8666667,16 C29.8666667,14.0873473 29.507143,12.2870922 28.785314,10.5998169 C28.0626101,8.91049645 27.074218,7.43735968 25.8184292,6.18157084 C24.5626403,4.925782 23.0895036,3.93738993 21.4001831,3.21468598 C19.7129078,2.492857 17.9126527,2.13333333 16,2.13333333 Z" id="Path" stroke="#65C0C7" stroke-width="1.6" fill-rule="nonzero"></path>
                <path d="M11,15 C11.5416667,15 12.0052083,14.8020833 12.390625,14.40625 C12.7760417,14.0104167 12.96875,13.5416667 12.96875,13 C12.96875,12.4583333 12.7760417,11.9895833 12.390625,11.59375 C12.0052083,11.1979167 11.5416667,11 11,11 C10.4375,11 9.96354167,11.1979167 9.578125,11.59375 C9.19270833,11.9895833 9,12.4583333 9,13 C9,13.5416667 9.19270833,14.0104167 9.578125,14.40625 C9.96354167,14.8020833 10.4375,15 11,15 Z" id="Path" fill="#65C0C7" fill-rule="nonzero"></path>
                <path d="M21,15 C21.5416667,15 22.0052083,14.8020833 22.390625,14.40625 C22.7760417,14.0104167 22.96875,13.5416667 22.96875,13 C22.96875,12.4583333 22.7760417,11.9895833 22.390625,11.59375 C22.0052083,11.1979167 21.5416667,11 21,11 C20.4375,11 19.9635417,11.1979167 19.578125,11.59375 C19.1927083,11.9895833 19,12.4583333 19,13 C19,13.5416667 19.1927083,14.0104167 19.578125,14.40625 C19.9635417,14.8020833 20.4375,15 21,15 Z" id="Path" fill="#65C0C7" fill-rule="nonzero"></path>
                <path d="M15.8402675,25.4745066 L15.8663963,25.4712405 L15.8663963,25.4712405 L15.8925251,25.4614422 C15.9099443,25.4527326 15.9273635,25.4483778 15.9447827,25.4483778 C17.2860617,25.4483778 18.4270197,25.2045089 19.3676569,24.7167711 C20.3082941,24.2290333 21.079094,23.6933927 21.6800566,23.1098492 C22.2810193,22.5263058 22.7208542,21.9819556 22.9995616,21.4767986 C23.2782689,20.9716416 23.4263321,20.6929343 23.4437513,20.6406766 C23.5482666,20.4316462 23.5569762,20.2226157 23.4698801,20.0135852 C23.3827841,19.8045547 23.2347208,19.6477818 23.0256904,19.5432666 C22.8166599,19.4561706 22.6032746,19.4518158 22.3855345,19.5302022 C22.1677944,19.6085886 22.0153764,19.7522971 21.9282803,19.9613276 C21.9282803,19.9787468 21.8150555,20.1834225 21.5886058,20.5753546 C21.3621561,20.9672868 21.0094172,21.3984121 20.530389,21.8687307 C20.0513608,22.3390493 19.4329789,22.7745295 18.6752434,23.1751713 C17.9175079,23.575813 17.0073544,23.7761339 15.9447827,23.7761339 C15.9273635,23.7761339 15.9099443,23.7804887 15.8925251,23.7891983 L15.8663963,23.8022627 L15.8663963,23.8022627 C14.8560823,23.8022627 13.9894767,23.6062966 13.2665797,23.2143645 C12.5436826,22.8224323 11.9470747,22.3956617 11.4767561,21.9340528 C11.0064376,21.4724438 10.6536986,21.0369636 10.4185393,20.6276122 C10.18338,20.2182609 10.0570908,19.996166 10.0396716,19.9613276 C9.93515633,19.7522971 9.77838346,19.6085886 9.56935298,19.5302022 C9.3603225,19.4518158 9.15129201,19.4561706 8.94226153,19.5432666 C8.71581184,19.6477818 8.56339378,19.8045547 8.48500735,20.0135852 C8.40662092,20.2226157 8.41968532,20.4403558 8.52420056,20.6668055 C8.54161977,20.7016439 8.69403783,20.9759964 8.98145475,21.489863 C9.26887166,22.0037296 9.70870664,22.5524346 10.3009597,23.135978 C10.8932127,23.7195215 11.6465934,24.2551621 12.5611018,24.7428999 C13.4756101,25.2306377 14.5686654,25.4745066 15.8402675,25.4745066 Z" id="Path" fill="#65C0C7" fill-rule="nonzero"></path>
            </g>
        </g>
    </g>
</svg>