<?xml version="1.0" encoding="UTF-8"?>
<svg width="56px" height="56px" viewBox="0 0 56 56" version="1.1" xmlns="http://www.w3.org/2000/svg" xmlns:xlink="http://www.w3.org/1999/xlink">
    <title>logo_56_black</title>
    <defs>
        <rect id="path-1" x="0" y="0" width="55.6410256" height="56" rx="27.8205128"></rect>
    </defs>
    <g id="Page-1" stroke="none" stroke-width="1" fill="none" fill-rule="evenodd">
        <g id="Desktop-HD" transform="translate(-1080.000000, -558.000000)">
            <g id="logo_56_black" transform="translate(1080.000000, 558.000000)">
                <g id="Fill-1">
                    <mask id="mask-2" fill="white">
                        <use xlink:href="#path-1"></use>
                    </mask>
                    <rect stroke="#1F3B3D" stroke-width="1.6" x="0.8" y="0.8" width="54.0410256" height="54.4" rx="27.0205128"></rect>
                    <path d="M49.5929145,48.642241 C46.3145294,53.0212689 30.4761211,60.5460017 24.6058906,58.9310933 C20.0751758,57.6847011 14.6391563,54.1533433 9.91866275,53.984398 C2.97799325,53.7363648 -6.86702791,47.156466 -7.82296263,47.5470257 C-7.84291287,47.5551028 -7.87241909,47.5396218 -8,47.5164002 C-6.8594837,46.8135272 -5.78418288,46.1501982 -4.70837911,45.488047 C3.38185974,40.5097139 4.88835385,33.8045713 9.91866275,25.7757996 C12.5530995,21.5710137 15.6388474,17.7445038 19.636103,14.7487537 C22.9317475,12.2791908 26.5276513,10.5794733 30.7668245,10.7692843 C33.7218062,10.9015463 36.2615212,12.0626245 38.455041,14.1004009 C32.8552284,11.742066 27.8549287,12.4388812 23.408206,16.9154266 C24.6657413,16.6090029 25.7526099,16.1999332 26.8676436,16.0969506 C31.829887,15.6382406 36.8353838,20.0346885 35.1352551,25.8414257 C34.2851069,28.7442895 31.319731,30.4041266 28.6487468,29.4271382 C28.006651,29.1922302 27.4564269,28.7039042 26.8639553,28.3321909 C26.9015087,28.2483914 26.939062,28.1644235 26.9766154,28.080624 C27.1539881,28.071369 27.3311931,28.0600948 27.5083981,28.0528591 C28.9515209,27.9941321 30.318531,26.9646427 30.7218946,25.6319268 C31.1785705,24.1238713 30.721224,22.6774035 29.489339,21.734406 C27.3915468,20.1282478 24.3726908,20.4101038 22.3003813,22.4265096 C20.3734234,24.301062 19.9754246,26.6938927 20.0936172,29.2349713 C20.2634456,32.8822713 22.0584637,35.772683 24.6058906,38.1592877 C31.0798252,44.2251641 38.6220194,46.7083571 47.4185636,44.6266616 C56.2151078,42.5449662 53.5177904,42.1754086 53.5999385,42.1713701 C51.7819525,43.1737676 52.8712995,44.2632132 49.5929145,48.642241 Z" fill="#152729" mask="url(#mask-2)"></path>
                </g>
                <path d="M32.9278331,14.6568982 C34.1118622,15.0357702 35.35039,15.2965853 36.4699037,15.8154899 C39.893809,17.4021865 42.1426835,20.0386172 43.0455609,23.7460766 C43.1751012,24.2789504 43.1606701,24.8799667 43.0711973,25.4261283 C42.9241699,26.3227123 42.2571136,26.8358248 41.4173935,26.8392496 C40.5656191,26.8426391 39.9281041,26.352695 39.7265781,25.4673544 C39.6337097,25.0602034 39.5905862,24.62324 39.6248813,24.2080823 C39.9573059,20.1774574 37.7780403,16.6885649 34.0390276,15.3085102 C33.6471809,15.1638779 33.2478639,15.039518 32.8519425,14.9057885 C32.8772393,14.822825 32.9025362,14.7398616 32.9278331,14.6568982" id="Fill-4" fill="#152729"></path>
            </g>
        </g>
    </g>
</svg>